<?xml version="1.0" encoding="utf-8"?>
<!-- Generator: Adobe Illustrator 29.7.1, SVG Export Plug-In . SVG Version: 9.03 Build 0)  -->
<svg version="1.0" xmlns="http://www.w3.org/2000/svg" xmlns:xlink="http://www.w3.org/1999/xlink" x="0px" y="0px"
	 viewBox="0 0 576 576" enable-background="new 0 0 576 576" xml:space="preserve">
<g id="Layer_1">
</g>
<g id="Layer_2">
	<g>
		<g>
			<defs>
				<rect id="SVGID_1_" x="9.333313" y="9" width="557.333374" height="558"/>
			</defs>
			<clipPath id="SVGID_00000125581116933193072670000015580849121697597863_">
				<use xlink:href="#SVGID_1_"  overflow="visible"/>
			</clipPath>
		</g>
		<circle fill="#FFCD00" cx="288" cy="288" r="45.5863571"/>
		<g>
			<polygon fill="#334D87" points="288.0032959,13.5715332 288.0032959,190.9614868 242.4133301,226.5515137 
				137.0933228,119.9714966 156.4432983,54.5814819 			"/>
			<polygon fill="#334D87" points="438.9133301,119.9714966 333.5933228,226.5515137 419.5632935,54.5814819 			"/>
			<polygon fill="#667AA5" points="419.5632935,54.5814819 333.5933228,226.5515137 288.0032959,190.9614868 
				288.0032959,13.5715332 			"/>
			<polygon fill="#002169" points="189.7133179,100.0415039 242.4133301,226.5515137 137.0933228,119.9714966 
				156.4432983,54.5814819 288.0032959,13.5715332 			"/>
		</g>
		<g>
			<polygon fill="#334D87" points="13.5715332,287.9967041 190.9614868,287.9967041 226.5515137,333.5866699 
				119.9714966,438.9066772 54.5814819,419.5567017 			"/>
			<polygon fill="#334D87" points="119.9714966,137.0866699 226.5515137,242.4066772 54.5814819,156.4367065 			"/>
			<polygon fill="#667AA5" points="54.5814819,156.4367065 226.5515137,242.4066772 190.9614868,287.9967041 
				13.5715332,287.9967041 			"/>
			<polygon fill="#002169" points="100.0415039,386.2866821 226.5515137,333.5866699 119.9714966,438.9066772 
				54.5814819,419.5567017 13.5715332,287.9967041 			"/>
		</g>
		<g>
			<polygon fill="#334D87" points="287.9967041,562.4284668 287.9967041,385.0385132 333.5866699,349.4484863 
				438.9066772,456.0285034 419.5567017,521.4185181 			"/>
			<polygon fill="#334D87" points="137.0866699,456.0285034 242.4066772,349.4484863 156.4367065,521.4185181 			"/>
			<polygon fill="#667AA5" points="156.4367065,521.4185181 242.4066772,349.4484863 287.9967041,385.0385132 
				287.9967041,562.4284668 			"/>
			<polygon fill="#002169" points="386.2866821,475.9584961 333.5866699,349.4484863 438.9066772,456.0285034 
				419.5567017,521.4185181 287.9967041,562.4284668 			"/>
		</g>
		<g>
			<polygon fill="#334D87" points="562.4284668,288.0032959 385.0385132,288.0032959 349.4484863,242.4133301 
				456.0285034,137.0933228 521.4185181,156.4432983 			"/>
			<polygon fill="#334D87" points="456.0285034,438.9133301 349.4484863,333.5933228 521.4185181,419.5632935 			"/>
			<polygon fill="#667AA5" points="521.4185181,419.5632935 349.4484863,333.5933228 385.0385132,288.0032959 
				562.4284668,288.0032959 			"/>
			<polygon fill="#002169" points="475.9584961,189.7133179 349.4484863,242.4133301 456.0285034,137.0933228 
				521.4185181,156.4432983 562.4284668,288.0032959 			"/>
		</g>
	</g>
</g>
</svg>
