<?xml version="1.0" encoding="utf-8"?>
<!-- Generator: Adobe Illustrator 29.7.1, SVG Export Plug-In . SVG Version: 9.03 Build 0)  -->
<svg version="1.0" xmlns="http://www.w3.org/2000/svg" xmlns:xlink="http://www.w3.org/1999/xlink" x="0px" y="0px"
	 viewBox="0 0 1720.2888184 880" enable-background="new 0 0 1720.2888184 880" xml:space="preserve">
<g id="Layer_1">
	<g transform="matrix(1, 0, 0, 1, 476, 171)">
		<g>
			<g>
				<g>
					<g>
						<g transform="translate(0.411291, 277.612679)">
							<g>
								<path fill="#002169" d="M225.9618073-119.6272888l-28.5264282-4.8454971v-23.1300278h57.4118195
									c5.3209839,0,13.5558472-0.2484894,24.7046204-0.7454681c14.7066345-0.9939423,28.0196533-1.490921,39.9285583-1.490921
									c26.3515625,0,47.1921387,3.1785736,62.5216675,9.5253448
									c15.3400879,6.3364258,26.2460022,15.4062195,32.7072144,27.2093658s9.691803,26.774498,9.691803,44.9140701
									c0,31.3249321-9.9557495,55.692215-29.8566895,73.0966797
									c-19.8903809,17.3941116-47.4455261,26.0911636-82.6654358,26.0911636
									c-13.9517517,0-23.9655762-0.3727303-30.0466919-1.1181927v73.4487l50.950592,3.7273102v22.3638611H195.9150848v-22.3638611
									l30.0467224-3.7273102V-119.6272888z M281.4521484,6.0037422
									c5.8277588,1.2424364,15.7149048,1.8636546,29.6666565,1.8636546c16.9765015,0,30.5957031-5.7773294,40.8576355-17.3319874
									c10.2619019-11.5546579,15.3928528-30.7554779,15.3928528-57.6076355
									c0-20.8729324-4.624176-36.0927734-13.8725891-45.6595383
									c-9.2483826-9.5667572-23.3743591-14.3501358-42.3778992-14.3501358c-7.0946655,0-14.4532471,0.4969711-22.0652161,1.490921
									c-3.5473328,0.4969711-6.0811462,0.7454605-7.6014404,0.7454605V6.0037422z"/>
							</g>
						</g>
					</g>
					<g>
						<g transform="translate(186.368739, 277.612679)">
							<g>
								<path fill="#002169" d="M358.9530029,133.5191345c-13.6825562,0-25.9714966-1.1181946-36.8668823-3.3545837
									c-10.8953552-2.2363815-23.0576172-5.2182312-36.4867859-8.9455414
									c-8.8841553-2.4848709-14.8439026-3.8515472-17.8844604-4.1000366l3.4206238-68.9759293h30.8068848l8.3615417,48.1029968
									c3.2939453,3.4788208,9.1850586,6.5849152,17.6733093,9.3182755s18.1800537,4.1000366,29.0754089,4.1000366
									c16.9870605,0,29.730011-3.665184,38.2182617-10.9955597c8.4882507-7.3407288,12.7323608-17.601181,12.7323608-30.7710114
									c0-8.697052-2.533783-16.2137947-7.6014099-22.5502205S388.366272,33.295929,379.4979553,28.2019405
									s-21.0411377-11.0007401-36.5079346-17.7254257c-21.0305786-9.4425173-38.4610596-20.6865654-52.2808533-33.732151
									c-13.8092346-13.0455799-20.7138672-30.755476-20.7138672-53.1348648
									c0-13.9152832,3.6740112-26.5260162,11.0220642-37.8321838
									c7.3585815-11.3061752,18.3278503-20.251709,32.8972473-26.8366241
									c14.5693665-6.5952759,32.3746338-9.8980865,53.4210815-9.8980865c12.4156494,0,23.3743591,0.8697052,32.8761292,2.6091156
									s19.8270264,4.1000519,30.975769,7.0818939c6.5984497,1.7394104,11.5499268,2.857605,14.8439026,3.3545837
									l-2.280426,65.2486115h-30.4267883l-7.9815063-45.8459015c-2.280426-2.2363815-6.8412781-4.4106522-13.6825562-6.522789
									c-6.8412781-2.1121445-14.442688-3.1682205-22.8042603-3.1682205c-15.2186584,0-26.6894226,3.4167023-34.417511,10.2501068
									c-7.7281189,6.8333969-11.5921631,15.9653091-11.5921631,27.3957214c0,9.1940308,2.8505249,17.1559753,8.5515747,23.8754883
									c5.7010803,6.709156,12.6056824,12.3622398,20.7138672,16.9592552
									c8.1187439,4.5970154,20.9250183,11.1198082,38.4082947,19.5683746
									c14.1893005,6.709156,26.3515625,13.2940693,36.4867859,19.7547379
									c10.1457825,6.4606695,18.8979797,14.8574696,26.2460327,25.1800461
									c7.3480225,10.3122215,11.0220337,22.4259758,11.0220337,36.3412666
									c0,13.6668015-3.4839783,26.7227325-10.4519348,39.1574554
									c-6.9679565,12.4243622-18.3806458,22.7365875-34.2275085,30.9366608
									C403.7591553,129.4190979,383.5414734,133.5191345,358.9530029,133.5191345z"/>
							</g>
						</g>
					</g>
					<g>
						<g transform="translate(356.009206, 277.612679)">
							<g>
								<path fill="#002169" d="M350.9058838-119.6272888l-28.5264282-4.8454971v-23.1300278h57.4118347
									c5.3209839,0,13.5558472-0.2484894,24.7045898-0.7454681c14.7066345-0.9939423,28.0196838-1.490921,39.9285889-1.490921
									c26.3515625,0,47.1921387,3.1785736,62.5216675,9.5253448
									c15.3400574,6.3364258,26.2460022,15.4062195,32.7071838,27.2093658
									c6.4612427,11.8031464,9.6918335,26.774498,9.6918335,44.9140701c0,31.3249321-9.9557495,55.692215-29.8566895,73.0966797
									c-19.8903809,17.3941116-47.4455261,26.0911636-82.6654358,26.0911636
									c-13.9517517,0-23.9655762-0.3727303-30.0467224-1.1181927v73.4487l50.9506226,3.7273102v22.3638611H320.8591614
									v-22.3638611l30.0467224-3.7273102V-119.6272888z M406.3962402,6.0037422
									c5.8277588,1.2424364,15.7148743,1.8636546,29.6666565,1.8636546c16.9765015,0,30.5957031-5.7773294,40.8576355-17.3319874
									c10.2619019-11.5546579,15.3928528-30.7554779,15.3928528-57.6076355
									c0-20.8729324-4.624176-36.0927734-13.8725891-45.6595383
									c-9.2483826-9.5667572-23.3743591-14.3501358-42.3778992-14.3501358c-7.0946655,0-14.4532471,0.4969711-22.0652161,1.490921
									c-3.5473328,0.4969711-6.0811462,0.7454605-7.6014404,0.7454605V6.0037422z"/>
							</g>
						</g>
					</g>
					<g>
						<g transform="translate(541.966654, 277.612679)">
							<g>
								<path fill="#002169" d="M416.2444763-119.6272888l-28.1463623-4.8454971v-23.1300278h115.5837708v23.1300278
									l-31.947052,4.8454971v93.5761719h115.5837708v-93.5761719l-29.2865601-4.8454971v-23.1300278H672.09552v23.1300278
									l-28.885376,4.8454971v222.9552155l28.885376,3.7273102v22.3638611H557.6519775v-22.3638611l29.666626-3.7273102V2.276433
									H471.7348328v101.0514908l31.947052,3.7273102v22.3638611H387.3379517v-22.3638611l28.9065247-3.7273102V-119.6272888z"/>
							</g>
						</g>
					</g>
				</g>
			</g>
		</g>
	</g>
</g>
<g id="Layer_2">
	<circle fill="#FFCD00" cx="290.8932495" cy="440" r="45.5863571"/>
	<g>
		<polygon fill="#334D87" points="290.8965454,165.5715332 290.8965454,342.9614868 245.3065796,378.5515137 
			139.9865723,271.9714966 159.3365479,206.5814819 		"/>
		<polygon fill="#334D87" points="441.8065796,271.9714966 336.4865723,378.5515137 422.456543,206.5814819 		"/>
		<polygon fill="#667AA5" points="422.456543,206.5814819 336.4865723,378.5515137 290.8965454,342.9614868 
			290.8965454,165.5715332 		"/>
		<polygon fill="#002169" points="192.6065674,252.0415039 245.3065796,378.5515137 139.9865723,271.9714966 
			159.3365479,206.5814819 290.8965454,165.5715332 		"/>
	</g>
	<g>
		<polygon fill="#334D87" points="16.4647827,439.9967041 193.8547363,439.9967041 229.4447632,485.5866699 
			122.8647461,590.9066772 57.4747314,571.5567017 		"/>
		<polygon fill="#334D87" points="122.8647461,289.0866699 229.4447632,394.4066772 57.4747314,308.4367065 		"/>
		<polygon fill="#667AA5" points="57.4747314,308.4367065 229.4447632,394.4066772 193.8547363,439.9967041 16.4647827,439.9967041 
					"/>
		<polygon fill="#002169" points="102.9347534,538.2866821 229.4447632,485.5866699 122.8647461,590.9066772 
			57.4747314,571.5567017 16.4647827,439.9967041 		"/>
	</g>
	<g>
		<polygon fill="#334D87" points="290.8899536,714.4284668 290.8899536,537.0385132 336.4799194,501.4484863 
			441.7999268,608.0285034 422.4499512,673.4185181 		"/>
		<polygon fill="#334D87" points="139.9799194,608.0285034 245.2999268,501.4484863 159.3299561,673.4185181 		"/>
		<polygon fill="#667AA5" points="159.3299561,673.4185181 245.2999268,501.4484863 290.8899536,537.0385132 
			290.8899536,714.4284668 		"/>
		<polygon fill="#002169" points="389.1799316,627.9584961 336.4799194,501.4484863 441.7999268,608.0285034 
			422.4499512,673.4185181 290.8899536,714.4284668 		"/>
	</g>
	<g>
		<polygon fill="#334D87" points="565.3217163,440.0032959 387.9317627,440.0032959 352.3417358,394.4133301 
			458.9217529,289.0933228 524.3117676,308.4432983 		"/>
		<polygon fill="#334D87" points="458.9217529,590.9133301 352.3417358,485.5933228 524.3117676,571.5632935 		"/>
		<polygon fill="#667AA5" points="524.3117676,571.5632935 352.3417358,485.5933228 387.9317627,440.0032959 
			565.3217163,440.0032959 		"/>
		<polygon fill="#002169" points="478.8517456,341.7133179 352.3417358,394.4133301 458.9217529,289.0933228 
			524.3117676,308.4432983 565.3217163,440.0032959 		"/>
	</g>
</g>
</svg>
