<?xml version="1.0" encoding="utf-8"?>
<!-- Generator: Adobe Illustrator 29.7.1, SVG Export Plug-In . SVG Version: 9.03 Build 0)  -->
<svg version="1.0" xmlns="http://www.w3.org/2000/svg" xmlns:xlink="http://www.w3.org/1999/xlink" x="0px" y="0px"
	 viewBox="0 0 2640 880" enable-background="new 0 0 2640 880" xml:space="preserve">
<g id="Layer_1">
	<path fill="none" stroke="#FFCD00" stroke-width="15" d="M1731.6427002,593.03125v-306.0625"/>
	<g transform="matrix(1, 0, 0, 1, 476, 171)">
		<g>
			<g>
				<g>
					<g>
						<g transform="translate(0.411291, 277.612679)">
							<g>
								<path fill="#002169" d="M225.9618073-119.6272888l-28.5264282-4.8454971v-23.1300278h57.4118195
									c5.3209839,0,13.5558472-0.2484894,24.7046204-0.7454681c14.7066345-0.9939423,28.0196533-1.490921,39.9285583-1.490921
									c26.3515625,0,47.1921387,3.1785736,62.5216675,9.5253448
									c15.3400879,6.3364258,26.2460022,15.4062195,32.7072144,27.2093658s9.691803,26.774498,9.691803,44.9140701
									c0,31.3249321-9.9557495,55.692215-29.8566895,73.0966797
									c-19.8903809,17.3941116-47.4455261,26.0911636-82.6654358,26.0911636
									c-13.9517517,0-23.9655762-0.3727303-30.0466919-1.1181927v73.4487l50.950592,3.7273102v22.3638611H195.9150848v-22.3638611
									l30.0467224-3.7273102V-119.6272888z M281.4521484,6.0037422
									c5.8277588,1.2424364,15.7149048,1.8636546,29.6666565,1.8636546c16.9765015,0,30.5957031-5.7773294,40.8576355-17.3319874
									c10.2619019-11.5546579,15.3928528-30.7554779,15.3928528-57.6076355
									c0-20.8729324-4.624176-36.0927734-13.8725891-45.6595383
									c-9.2483826-9.5667572-23.3743591-14.3501358-42.3778992-14.3501358c-7.0946655,0-14.4532471,0.4969711-22.0652161,1.490921
									c-3.5473328,0.4969711-6.0811462,0.7454605-7.6014404,0.7454605V6.0037422z"/>
							</g>
						</g>
					</g>
					<g>
						<g transform="translate(186.368739, 277.612679)">
							<g>
								<path fill="#002169" d="M358.9530029,133.5191345c-13.6825562,0-25.9714966-1.1181946-36.8668823-3.3545837
									c-10.8953552-2.2363815-23.0576172-5.2182312-36.4867859-8.9455414
									c-8.8841553-2.4848709-14.8439026-3.8515472-17.8844604-4.1000366l3.4206238-68.9759293h30.8068848l8.3615417,48.1029968
									c3.2939453,3.4788208,9.1850586,6.5849152,17.6733093,9.3182755s18.1800537,4.1000366,29.0754089,4.1000366
									c16.9870605,0,29.730011-3.665184,38.2182617-10.9955597c8.4882507-7.3407288,12.7323608-17.601181,12.7323608-30.7710114
									c0-8.697052-2.533783-16.2137947-7.6014099-22.5502205S388.366272,33.295929,379.4979553,28.2019405
									s-21.0411377-11.0007401-36.5079346-17.7254257c-21.0305786-9.4425173-38.4610596-20.6865654-52.2808533-33.732151
									c-13.8092346-13.0455799-20.7138672-30.755476-20.7138672-53.1348648
									c0-13.9152832,3.6740112-26.5260162,11.0220642-37.8321838
									c7.3585815-11.3061752,18.3278503-20.251709,32.8972473-26.8366241
									c14.5693665-6.5952759,32.3746338-9.8980865,53.4210815-9.8980865c12.4156494,0,23.3743591,0.8697052,32.8761292,2.6091156
									s19.8270264,4.1000519,30.975769,7.0818939c6.5984497,1.7394104,11.5499268,2.857605,14.8439026,3.3545837
									l-2.280426,65.2486115h-30.4267883l-7.9815063-45.8459015c-2.280426-2.2363815-6.8412781-4.4106522-13.6825562-6.522789
									c-6.8412781-2.1121445-14.442688-3.1682205-22.8042603-3.1682205c-15.2186584,0-26.6894226,3.4167023-34.417511,10.2501068
									c-7.7281189,6.8333969-11.5921631,15.9653091-11.5921631,27.3957214c0,9.1940308,2.8505249,17.1559753,8.5515747,23.8754883
									c5.7010803,6.709156,12.6056824,12.3622398,20.7138672,16.9592552
									c8.1187439,4.5970154,20.9250183,11.1198082,38.4082947,19.5683746
									c14.1893005,6.709156,26.3515625,13.2940693,36.4867859,19.7547379
									c10.1457825,6.4606695,18.8979797,14.8574696,26.2460327,25.1800461
									c7.3480225,10.3122215,11.0220337,22.4259758,11.0220337,36.3412666
									c0,13.6668015-3.4839783,26.7227325-10.4519348,39.1574554
									c-6.9679565,12.4243622-18.3806458,22.7365875-34.2275085,30.9366608
									C403.7591553,129.4190979,383.5414734,133.5191345,358.9530029,133.5191345z"/>
							</g>
						</g>
					</g>
					<g>
						<g transform="translate(356.009206, 277.612679)">
							<g>
								<path fill="#002169" d="M350.9058838-119.6272888l-28.5264282-4.8454971v-23.1300278h57.4118347
									c5.3209839,0,13.5558472-0.2484894,24.7045898-0.7454681c14.7066345-0.9939423,28.0196838-1.490921,39.9285889-1.490921
									c26.3515625,0,47.1921387,3.1785736,62.5216675,9.5253448
									c15.3400574,6.3364258,26.2460022,15.4062195,32.7071838,27.2093658
									c6.4612427,11.8031464,9.6918335,26.774498,9.6918335,44.9140701c0,31.3249321-9.9557495,55.692215-29.8566895,73.0966797
									c-19.8903809,17.3941116-47.4455261,26.0911636-82.6654358,26.0911636
									c-13.9517517,0-23.9655762-0.3727303-30.0467224-1.1181927v73.4487l50.9506226,3.7273102v22.3638611H320.8591614
									v-22.3638611l30.0467224-3.7273102V-119.6272888z M406.3962402,6.0037422
									c5.8277588,1.2424364,15.7148743,1.8636546,29.6666565,1.8636546c16.9765015,0,30.5957031-5.7773294,40.8576355-17.3319874
									c10.2619019-11.5546579,15.3928528-30.7554779,15.3928528-57.6076355
									c0-20.8729324-4.624176-36.0927734-13.8725891-45.6595383
									c-9.2483826-9.5667572-23.3743591-14.3501358-42.3778992-14.3501358c-7.0946655,0-14.4532471,0.4969711-22.0652161,1.490921
									c-3.5473328,0.4969711-6.0811462,0.7454605-7.6014404,0.7454605V6.0037422z"/>
							</g>
						</g>
					</g>
					<g>
						<g transform="translate(541.966654, 277.612679)">
							<g>
								<path fill="#002169" d="M416.2444763-119.6272888l-28.1463623-4.8454971v-23.1300278h115.5837708v23.1300278
									l-31.947052,4.8454971v93.5761719h115.5837708v-93.5761719l-29.2865601-4.8454971v-23.1300278H672.09552v23.1300278
									l-28.885376,4.8454971v222.9552155l28.885376,3.7273102v22.3638611H557.6519775v-22.3638611l29.666626-3.7273102V2.276433
									H471.7348328v101.0514908l31.947052,3.7273102v22.3638611H387.3379517v-22.3638611l28.9065247-3.7273102V-119.6272888z"/>
							</g>
						</g>
					</g>
				</g>
			</g>
		</g>
	</g>
	<g transform="matrix(1, 0, 0, 1, 1341, 222)">
		<g>
			<g>
				<g>
					<g>
						<g transform="translate(0.789904, 87.625581)">
							<g>
								<path fill="#002169" d="M459.0671082,13.120554l-9.3474426-1.601182V3.7947526h18.8030701
									c1.7418213,0,4.4411316-0.0865502,8.0924683-0.2596509c4.8143616-0.3299732,9.1743164-0.4976647,13.0690918-0.4976647
									c8.6388245,0,15.4708862,1.0602422,20.4908142,3.1807256c5.0198975,2.1204844,8.5792847,5.1497469,10.6889648,9.0877876
									c2.1204834,3.9380417,3.1807251,8.9363251,3.1807251,14.9948502c0,10.4617729-3.2619019,18.5975075-9.7802124,24.4071999
									c-6.5074768,5.8151016-15.530365,8.7199478-27.0686035,8.7199478c-4.5601196,0-7.8328247-0.1190071-9.8234863-0.367836
									v24.5153885l16.6825867,1.254982v7.4649658h-44.8330688v-7.4649658l9.8450928-1.254982V13.120554z M477.2426758,55.07584
									c1.9041138,0.4219322,5.1389465,0.627491,9.7153015,0.627491c5.5500183,0,10.0073853-1.9257469,13.3720093-5.7772369
									c3.3592529-3.8623085,5.0415649-10.2778549,5.0415649-19.235817c0-6.9781227-1.5146179-12.0629578-4.5438843-15.2545013
									c-3.0292664-3.202363-7.6542969-4.803545-13.8696899-4.803545c-2.3260498,0-4.7332458,0.1676912-7.2269592,0.4976645
									c-1.1684265,0.1731014-2.0014954,0.2596512-2.4883423,0.2596512V55.07584z"/>
							</g>
						</g>
					</g>
					<g>
						<g transform="translate(60.21615, 87.625581)">
							<g>
								<path fill="#002169" d="M528.8665771,97.5504303c-2.7425537,0-4.7386475-0.5842209-5.9935913-1.7526474
									c-1.2441406-1.1684265-1.8608398-2.9102554-1.8608398-5.2362976v-3.3538284
									c-2.239502,2.742569-5.3877563,5.1713867-9.4556274,7.2918701
									c-4.0678711,2.1042557-8.1357422,3.1590881-12.2036133,3.1590881c-7.962616,0-13.6478882-2.044754-17.050415-6.1450729
									c-3.4078979-4.111145-5.1064758-10.8945236-5.1064758-20.3609695V36.0347595l-6.2315979-1.7310066V27.206625
									l21.183197-1.6228199h0.1081848l2.4883118,1.7310066v43.8377609c0,6.0585175,0.7464905,10.2940826,2.2503052,12.7012634
									c1.4984131,2.3963623,4.2734375,3.591835,8.3304749,3.591835c4.9009094,0,9.4664307-1.9041061,13.6965942-5.7123184
									V36.0347595l-8.3304749-1.8608322V27.206625l22.5247498-1.6228199h0.2596436l2.9859619,1.7310066v61.2560196h6.9673462
									l-0.1298218,7.0971298c-0.3353882,0.0865479-1.8717041,0.4219284-4.6088257,0.9953232
									C535.9637451,97.2529144,532.6856079,97.5504303,528.8665771,97.5504303z"/>
							</g>
						</g>
					</g>
					<g>
						<g transform="translate(117.664523, 87.625581)">
							<g>
								<path fill="#002169" d="M489.2193298-3.0643632l22.7843933-2.7263362h0.2379761l3.5053101,2.3584971v36.7189903
									c2.2340698-2.2340832,4.9874878-4.1165524,8.265564-5.6474133
									c3.2888794-1.5416775,6.8374634-2.3152218,10.6456909-2.3152218c7.9734497,0,14.4755249,2.807478,19.4954834,8.4170227
									c5.0198975,5.5987244,7.5298462,14.1672134,7.5298462,25.7054558c0,7.1404037-1.492981,13.6208649-4.4789429,19.4305573
									c-2.9860229,5.7988739-7.286499,10.3806305-12.8960571,13.7398682
									c-5.5986938,3.3646469-12.0899658,5.0415573-19.4738159,5.0415573c-6.5670166,0-12.2576904-0.5571671-17.072052-1.6660919
									c-4.8035278-1.1251526-7.8706665-2.1421204-9.1959839-3.0509033V4.9199071l-9.3474121-1.4929934V-3.0643632z
									 M528.0587769,36.2944107c-2.4829102,0-4.8251953,0.5625801-7.0322266,1.6877327
									c-2.196167,1.1143379-3.9542236,2.3747253-5.279541,3.7865791v45.4389343
									c0.4868164,0.908783,1.6444702,1.6606903,3.4620361,2.2503128c1.8283691,0.578804,3.9055786,0.8655014,6.2316284,0.8655014
									c5.3228149,0,9.574585-2.4666824,12.7661743-7.4000549c3.2023315-4.9441833,4.8035278-12.2739182,4.8035278-21.9837914
									c0-8.3791542-1.3740234-14.5837326-4.111145-18.608326
									C536.1566772,38.3067093,532.5431519,36.2944107,528.0587769,36.2944107z"/>
							</g>
						</g>
					</g>
					<g>
						<g transform="translate(173.224926, 87.625581)">
							<g>
								<path fill="#002169" d="M523.4304199,5.2877464l-9.2176514-1.6228192v-6.7292905l23.0223999-2.7263362h0.2596436
									l3.3538208,2.3584971v91.2673569l9.0878296,0.9953308v7.4649658h-35.2260132v-7.4649658l8.7199707-1.1251602V5.2877464z"/>
							</g>
						</g>
					</g>
					<g>
						<g transform="translate(203.792132, 87.625581)">
							<g>
								<path fill="#002169" d="M542.7877197,15.7387018c-2.9860229,0-5.3553467-0.8709126-7.097168-2.6181479
									c-1.7471924-1.7418261-2.618103-3.9813166-2.618103-6.707653c0-3.1590879,0.9953003-5.7772365,2.9859619-7.854445
									s4.6412354-3.1158128,7.9626465-3.1158128c3.315918,0,5.8475342,0.8979599,7.5947876,2.6830611
									c1.7418213,1.7905105,2.6181641,4.013773,2.6181641,6.6643777c0,3.3213701-0.9953613,5.9719744-2.9860229,7.9626331
									s-4.7764893,2.9859867-8.3521118,2.9859867H542.7877197z M536.1882324,38.8909225l-8.8497925-2.3584976v-8.330471
									l22.7844238-2.7479744h0.2596436l3.4836426,2.4883232v59.892849l8.3304443,0.9953308v7.4649658h-34.7283325v-7.4649658
									l8.7199707-1.1251602V38.8909225z"/>
							</g>
						</g>
					</g>
					<g>
						<g transform="translate(234.98867, 87.625581)">
							<g>
								<path fill="#002169" d="M538.3475952,62.0647812c0-7.1404037,1.4280396-13.4856262,4.2842407-19.0410805
									c2.8669434-5.5662689,6.9780884-9.9100151,12.333374-13.0258274
									c5.3499146-3.1158123,11.5977783-4.6737194,18.7381592-4.6737194c3.315979,0,6.1775513,0.2542419,8.5901489,0.7573166
									c2.4071655,0.4922543,5.1064453,1.1576099,8.0924683,1.9906578l3.6134644,0.9953289l-0.7356567,21.2913876h-10.8404541
									l-3.1158447-13.6965942c-0.4922485-2.1637573-2.9372559-3.245636-7.335083-3.245636
									c-4.6629028,0-8.2980347,2.0339317-10.9053955,6.101799c-2.6127319,4.0678673-3.9596558,10.4239082-4.0462036,19.0627174
									c0,9.1202393,1.5795288,16.1091843,4.7386475,20.9668198c3.1590576,4.8630524,7.3459473,7.2918701,12.5714111,7.2918701
									c6.3019409,0,12.1170654-1.698555,17.4398804-5.1064682l2.8562012,6.469635
									c-2.1637573,2.3260422-5.4689331,4.478981-9.9100342,6.4696426
									c-4.4302979,1.990654-9.2175903,2.9859848-14.3673706,2.9859848c-10.6348877,0-18.6245117-3.2726822-23.9744263-9.8234634
									C541.0198364,81.2735519,538.3475952,72.6834259,538.3475952,62.0647812z"/>
							</g>
						</g>
					</g>
					<g>
						<g transform="translate(302.955755, 87.625581)">
							<g>
								<path fill="#002169" d="M597.4990234,97.6586151c-4.4898071,0-8.5197754-0.3786545-12.0953979-1.1251526
									c-3.5648193-0.7356796-7.5461426-1.7310104-11.9439697-2.9859848
									c-2.8994141-0.8222351-4.8468018-1.276619-5.8421021-1.3631744l1.1251221-23.0223923h10.0831299l2.7263184,16.0550919
									c1.0819092,1.157608,3.0130615,2.1962128,5.7988892,3.1158142c2.7803955,0.9087753,5.9557495,1.3631668,9.5205078,1.3631668
									c5.5662842,0,9.7369385-1.2171173,12.5065308-3.6567535c2.7804565-2.4504547,4.1760864-5.8746033,4.1760864-10.2778549
									c0-2.9102554-0.8330688-5.4202194-2.4883423-7.5298843c-1.6607056-2.1204834-3.9488525-4.0299988-6.8591309-5.7339592
									c-2.8994141-1.6985512-6.8807373-3.6783905-11.9439087-5.9286995
									c-6.8807983-3.1428604-12.5877075-6.891571-17.1153564-11.251545
									c-4.5168457-4.3545647-6.772583-10.2670364-6.772583-17.7428246c0-4.6412621,1.1954956-8.8551826,3.5918579-12.6363516
									c2.4071655-3.7757597,5.9990234-6.7617464,10.7755127-8.957962
									c4.7711182-2.2070341,10.6078491-3.3105512,17.5048218-3.3105512c4.0516357,0,7.6380615,0.2975168,10.7539062,0.887141
									c3.1157837,0.5788057,6.4966431,1.363168,10.1480103,2.3584974
									c2.1637573,0.5788054,3.7865601,0.9466443,4.8684692,1.1035171l-0.7573242,21.789053h-9.9533081l-2.6181641-15.2977753
									c-0.7518921-0.7464972-2.2503052-1.4767656-4.5006104-2.1853971c-2.239502-0.7032213-4.71698-1.0602417-7.4432983-1.0602417
									c-4.9929199,0-8.7578125,1.1413832-11.2948608,3.4187393c-2.5261841,2.2827654-3.7865601,5.3336649-3.7865601,9.1526995
									c0,3.0725384,0.9304199,5.7339611,2.7912598,7.984272c1.8716431,2.2394905,4.1381836,4.1273689,6.7941895,5.6690483
									c2.6506348,1.5308571,6.8483276,3.7000275,12.5930786,6.5129128
									c4.6412964,2.250309,8.6225586,4.4573441,11.9439697,6.6211052c3.315918,2.1529388,6.1774902,4.9495964,8.5900879,8.3953819
									c2.4072266,3.434967,3.6135254,7.4811974,3.6135254,12.1386909c0,4.5601196-1.1467896,8.9146881-3.4404297,13.0690994
									c-2.2827148,4.1544189-6.0151978,7.6056137-11.208252,10.3427734
									C612.1585083,96.2954483,605.5482178,97.6586151,597.4990234,97.6586151z"/>
							</g>
						</g>
					</g>
					<g>
						<g transform="translate(357.167604, 87.625581)">
							<g>
								<path fill="#002169" d="M585.3627319,62.0647812c0-7.1404037,1.4281006-13.4856262,4.2842407-19.0410805
									c2.8670044-5.5662689,6.9781494-9.9100151,12.3334351-13.0258274
									c5.3499146-3.1158123,11.5977783-4.6737194,18.7381592-4.6737194c3.315979,0,6.1775513,0.2542419,8.5900879,0.7573166
									c2.4072266,0.4922543,5.1065063,1.1576099,8.0924683,1.9906578l3.6135254,0.9953289l-0.7357178,21.2913876h-10.8403931
									l-3.1158447-13.6965942c-0.4922485-2.1637573-2.9373169-3.245636-7.335144-3.245636
									c-4.6629028,0-8.2980347,2.0339317-10.9053345,6.101799c-2.6127319,4.0678673-3.9596558,10.4239082-4.0462646,19.0627174
									c0,9.1202393,1.5795898,16.1091843,4.7386475,20.9668198c3.1591187,4.8630524,7.3459473,7.2918701,12.5714722,7.2918701
									c6.3019409,0,12.1170044-1.698555,17.4398804-5.1064682l2.8561401,6.469635
									c-2.1637573,2.3260422-5.4688721,4.478981-9.9099731,6.4696426
									c-4.4302979,1.990654-9.2176514,2.9859848-14.3673706,2.9859848c-10.6348877,0-18.6245728-3.2726822-23.9744873-9.8234634
									C588.0349731,81.2735519,585.3627319,72.6834259,585.3627319,62.0647812z"/>
							</g>
						</g>
					</g>
					<g>
						<g transform="translate(403.827543, 87.625581)">
							<g>
								<path fill="#002169" d="M610.7828369,5.2877464l-9.4556274-1.6228192v-6.7292905l23.1522217-2.7263362h0.3894653
									l3.223999,2.3584971l0.1298218,27.7610283l-0.8654785,10.8404331
									c2.5640869-2.3206329,6.0693359-4.478981,10.5158691-6.4696407
									c4.4411011-2.0014763,9.109436-3.0076237,13.9995117-3.0076237c5.2363281,0,9.3041992,0.9845104,12.2036133,2.9427109
									c2.8994141,1.9473839,4.9333496,4.9117355,6.1018066,8.8930511
									c1.168396,3.9813156,1.7526245,9.2987518,1.7526245,15.9469032v34.2306633l7.9626465,1.1251602v7.4649658h-32.7376709
									v-7.4649658l7.2053223-1.1251602V53.474659c0-4.3275185-0.2921143-7.6867561-0.8655396-10.0831184
									c-0.5787964-2.4071808-1.6390381-4.1868744-3.1807251-5.3444824
									c-1.5308228-1.1684303-3.7865601-1.7526474-6.772522-1.7526474c-2.5856934,0-5.2255249,0.6004448-7.9193726,1.7959213
									c-2.6992798,1.2008858-5.0848389,2.6343765-7.1620483,4.3058815v45.3091087l7.5947876,1.1251602v7.4649658h-32.2399902
									v-7.4649658l6.9672852-0.9953308V5.2877464z"/>
							</g>
						</g>
					</g>
					<g>
						<g transform="translate(464.062927, 87.625581)">
							<g>
								<path fill="#002169" d="M628.1195068,61.80513c0-7.8003502,1.5470581-14.4376831,4.6520386-19.9065819
									c3.1158447-5.4797211,7.2810669-9.6124992,12.5065308-12.3983383
									c5.2363281-2.7804317,10.927002-4.1760559,17.0720825-4.1760559c10.4563599,0,18.5271606,3.2185917,24.2124634,9.6503639
									c5.696106,6.4371834,8.546814,15.1679535,8.546814,26.2031212c0,7.8923149-1.5578613,14.5999641-4.6737061,20.1229591
									c-3.1157837,5.5121765-7.2702026,9.6179123-12.4632568,12.3117905
									c-5.1821899,2.6938782-10.883667,4.0462265-17.1152954,4.0462265c-10.3752441,0-18.4244385-3.2131805-24.147583-9.6503677
									C630.9810791,81.5764771,628.1195068,72.8403015,628.1195068,61.80513z M661.852478,89.5661545
									c9.3745117,0,14.0644531-9.0445099,14.0644531-27.1335335c0-9.4610367-1.119751-16.6609459-3.3538208-21.5943146
									c-2.239502-4.944191-5.885437-7.4216919-10.9486084-7.4216919c-9.6395874,0-14.4539185,9.0553284-14.4539185,27.1551743
									c0,9.4664421,1.1792603,16.6609459,3.5485229,21.5943108
									C653.0730591,87.099472,656.7893066,89.5661545,661.852478,89.5661545z"/>
							</g>
						</g>
					</g>
					<g>
						<g transform="translate(520.612242, 87.625581)">
							<g>
								<path fill="#002169" d="M649.8800659,61.80513c0-7.8003502,1.5471191-14.4376831,4.6520996-19.9065819
									c3.1157837-5.4797211,7.2810059-9.6124992,12.5065308-12.3983383
									c5.2362671-2.7804317,10.9269409-4.1760559,17.0720215-4.1760559c10.4563599,0,18.5272217,3.2185917,24.2124634,9.6503639
									c5.696106,6.4371834,8.546875,15.1679535,8.546875,26.2031212c0,7.8923149-1.5579224,14.5999641-4.6737061,20.1229591
									c-3.1158447,5.5121765-7.2702637,9.6179123-12.4632568,12.3117905
									c-5.1821899,2.6938782-10.883728,4.0462265-17.1153564,4.0462265c-10.3752441,0-18.4243774-3.2131805-24.147522-9.6503677
									C652.7416382,81.5764771,649.8800659,72.8403015,649.8800659,61.80513z M683.6130981,89.5661545
									c9.3744507,0,14.0643921-9.0445099,14.0643921-27.1335335c0-9.4610367-1.119751-16.6609459-3.3538208-21.5943146
									c-2.239502-4.944191-5.885437-7.4216919-10.9486084-7.4216919c-9.6395264,0-14.4539185,9.0553284-14.4539185,27.1551743
									c0,9.4664421,1.1792603,16.6609459,3.548584,21.5943108
									C674.8336182,87.099472,678.5498657,89.5661545,683.6130981,89.5661545z"/>
							</g>
						</g>
					</g>
					<g>
						<g transform="translate(577.16159, 87.625581)">
							<g>
								<path fill="#002169" d="M678.8676147,5.2877464l-9.2175903-1.6228192v-6.7292905l23.0223389-2.7263362h0.2597046
									l3.3538208,2.3584971v91.2673569l9.0877686,0.9953308v7.4649658H670.147644v-7.4649658l8.7199707-1.1251602V5.2877464z"/>
							</g>
						</g>
					</g>
				</g>
			</g>
		</g>
	</g>
	<g transform="matrix(1, 0, 0, 1, 1341, 349)">
		<g>
			<g>
				<g>
					<g>
						<g transform="translate(0.789904, 88.325028)">
							<g>
								<path fill="#334D87" d="M459.2149353,54.5835609l-9.487793-1.6252251v-7.8406143h19.0854187
									c1.7679749,0,4.5078125-0.0878487,8.2139893-0.2635498c4.8866577-0.3349266,9.3121033-0.5051384,13.2653503-0.5051384
									c8.7685242,0,15.703186,1.0761642,20.7984924,3.2284889c5.0952759,2.1523247,8.7081299,5.2270775,10.8494873,9.2242546
									c2.1522827,3.9971733,3.2284546,9.0705147,3.2284546,15.2200127c0,10.6188736-3.3108521,18.8767776-9.927063,24.7737045
									c-6.6051941,5.9024277-15.7635498,8.8508911-27.4750671,8.8508911c-4.6286011,0-7.9504395-0.1207886-9.9709778-0.3733597
									v24.8835144l16.9331055,1.2738342v7.5770569h-45.5063171v-7.5770569l9.9929199-1.2738342V54.5835609z
									 M477.6634521,97.1688614c1.9327087,0.4282684,5.216095,0.6369095,9.8611755,0.6369095
									c5.6333618,0,10.1576538-1.9546585,13.5728149-5.8639908c3.409668-3.9203033,5.1172791-10.4321899,5.1172791-19.5246658
									c0-7.0829086-1.537384-12.2440948-4.6121521-15.4835625c-3.0747375-3.2504539-7.7692261-4.875679-14.0779419-4.875679
									c-2.3609924,0-4.8043213,0.1702118-7.3354797,0.5051384c-1.1859741,0.1757011-2.0315552,0.2635498-2.5256958,0.2635498
									V97.1688614z"/>
							</g>
						</g>
					</g>
					<g>
						<g transform="translate(60.21615, 88.325028)">
							<g>
								<path fill="#334D87" d="M505.8078613,140.3910675c-11.1295166,0-19.4093933-3.2614288-24.8395996-9.7952728
									c-5.43573-6.5283585-8.1481018-15.4396439-8.1481018-26.7283707c0-7.5660858,1.4111023-14.1328735,4.2387695-19.7003708
									c2.8221741-5.5620041,6.8083801-9.8172379,11.9476013-12.7602081
									c5.1392212-2.9539642,11.074585-4.4364319,17.8115845-4.4364319c8.4171143,0,14.9015503,2.2127228,19.4588013,6.6326752
									c4.5516968,4.4254456,6.9071655,10.7286835,7.0718994,18.9097214c0,5.5510254-0.3403931,9.6744843-1.0102539,12.3648911
									h-41.0698853c0.3349304,7.6758957,2.1413269,13.6387177,5.4247437,17.899437
									c3.2943726,4.2497482,7.9723816,6.369133,14.0340271,6.369133c3.2944031,0,6.6820984-0.5380859,10.1686096-1.6252289
									c3.4975586-1.0981216,6.2593384-2.404892,8.2799072-3.9312897l3.1625977,6.940155
									c-2.2731323,2.448822-5.9518433,4.6999664-11.0471191,6.7644501
									C516.196106,139.3588257,511.0349121,140.3910675,505.8078613,140.3910675z M515.6690063,97.3006363
									c0.1592407-2.3554764,0.2415771-4.1618958,0.2415771-5.4247437c0-11.211853-3.750061-16.8232727-11.2447815-16.8232727
									c-4.1289673,0-7.3354797,1.6471863-9.6195679,4.9415588c-2.2731323,3.2833939-3.5304871,9.0485535-3.7775574,17.3064575
									H515.6690063z"/>
							</g>
						</g>
					</g>
					<g>
						<g transform="translate(109.663099, 88.325028)">
							<g>
								<path fill="#334D87" d="M501.0899048,80.7409058l-8.0822144-2.2621384v-8.7191162l20.9741821-2.6574631h0.3733521
									l3.1625977,2.5256882v4.9196014l-0.1317749,3.0527878c2.9539795-2.7782516,6.7919312-5.1831512,11.5083618-7.2036972
									c4.7109985-2.0315323,9.4713745-3.0527878,14.2756348-3.0527878c5.1392212,0,9.1583862,0.955368,12.0574341,2.8551254
									c2.9100342,1.8887711,4.99646,4.8646927,6.2592773,8.9167709c1.2738647,4.0411072,1.9107666,9.520752,1.9107666,16.4279556
									v34.8764572l7.7088623,1.0102844v7.5770569h-32.6143188v-7.5770569l6.8303223-1.0102844V95.5436325
									c0-4.3925018-0.302002-7.8241425-0.9004517-10.300415c-0.5875244-2.4872513-1.6582031-4.2936707-3.206543-5.424736
									c-1.553833-1.1420517-3.7666016-1.7130737-6.6326904-1.7130737c-4.8042603,0-9.9435425,2.064476-15.4176636,6.1934204
									v45.9894867l7.5770874,1.1420593v7.5770569H493.754425v-7.5770569l7.3354797-1.1420593V80.7409058z"/>
							</g>
						</g>
					</g>
					<g>
						<g transform="translate(170.887427, 88.325028)">
							<g>
								<path fill="#334D87" d="M532.8845215,128.6411285c0.6698608,1.0102692,2.2072144,1.9656525,4.6121216,2.8551331
									c2.3994141,0.8784943,4.8152466,1.317749,7.2476196,1.317749c3.9642334,0,6.9401245-0.8181152,8.916748-2.4598083
									c1.9766235-1.6362,2.9649658-3.8050003,2.9649658-6.5009003c0-2.7782516-1.2244263-5.0349045-3.6677246-6.7644501
									c-2.432373-1.7240601-6.5558472-3.8544159-12.3649292-6.3910904l-3.5359497-1.5154114
									c-5.8310547-2.4433289-10.1796265-5.3917923-13.0457153-8.8508911
									c-2.8551636-3.4536057-4.2827148-7.9174805-4.2827148-13.3971252c0-3.7885361,1.1311035-7.1817398,3.4041748-10.1686401
									c2.2841187-2.9869003,5.4906616-5.3204193,9.6196289-7.0060425c4.1289062-1.68013,8.8837891-2.5256882,14.2756348-2.5256882
									c3.9642334,0,7.3574219,0.2580643,10.1686401,0.768692c2.8221436,0.4996414,5.7980957,1.1640091,8.916748,1.9985886
									c1.6801147,0.6039658,2.9484863,0.9388962,3.7994995,1.0102692v16.5597305h-9.9929199l-2.8990479-9.5976105
									c-0.5161133-0.8455582-1.6582031-1.608757-3.4261475-2.2841034
									c-1.7734985-0.6698532-3.7940063-1.0102768-6.0616455-1.0102768c-3.4591064,0-6.2153931,0.7412338-8.2799072,2.2182159
									c-2.0644531,1.4824677-3.0966797,3.5249786-3.0966797,6.1275406c0,2.3609695,0.7137451,4.3211212,2.1523438,5.8859482
									c1.4330444,1.5538483,2.9923706,2.7562943,4.6779785,3.6018524
									c1.6801147,0.8345718,4.7988281,2.2182083,9.3560181,4.1509094c4.5352783,1.949173,8.3018188,3.8105011,11.2887573,5.578476
									c2.9978638,1.7570038,5.4906006,4.0520859,7.4672241,6.8742676
									c1.9766235,2.8276749,2.9649658,6.2593155,2.9649658,10.300415c0,6.2373505-2.4488525,11.2997055-7.3355103,15.1760941
									c-4.8756714,3.8654022-11.9036865,5.7980957-21.0839844,5.7980957c-4.3046265,0-8.1645508-0.3843384-11.5742188-1.1420441
									c-3.4151611-0.7467346-7.3519897-1.7570038-11.8158569-3.0308228l-2.7672729-0.8785095v-16.6695404h10.4761353
									L532.8845215,128.6411285z"/>
							</g>
						</g>
					</g>
					<g>
						<g transform="translate(217.547366, 88.325028)">
							<g>
								<path fill="#334D87" d="M552.8201904,57.241024c-3.0308228,0-5.43573-0.8839912-7.2036743-2.6574631
									c-1.7734985-1.7679787-2.6574707-4.0410995-2.6574707-6.8083763c0-3.2065239,1.0102539-5.863987,3.0308228-7.9723892
									c2.0205078-2.1083984,4.7109375-3.1626015,8.0822144-3.1626015c3.3657227,0,5.9353638,0.9114456,7.7088013,2.7233543
									c1.7680054,1.8173943,2.6574707,4.0740433,2.6574707,6.7644501c0,3.3712425-1.0102539,6.0616493-3.0308228,8.0822029
									c-2.0205688,2.0205498-4.8482056,3.0308228-8.4775391,3.0308228H552.8201904z M546.1216431,80.7409058l-8.982666-2.3939133
									v-8.4555664l23.1265259-2.789238h0.2635498l3.5359497,2.5256882v60.7922134l8.4555664,1.0102844v7.5770569H537.270752
									v-7.5770569l8.8508911-1.1420593V80.7409058z"/>
							</g>
						</g>
					</g>
					<g>
						<g transform="translate(248.743904, 88.325028)">
							<g>
								<path fill="#334D87" d="M550.4290161,103.9991989c0-7.9174805,1.5703125-14.65448,4.7219238-20.2055054
									c3.1625977-5.5620041,7.3903809-9.7568436,12.6943359-12.5845184
									c5.3149414-2.8221817,11.0910645-4.2387619,17.3284302-4.2387619c10.6134033,0,18.8054199,3.266922,24.5760498,9.7952805
									c5.7816162,6.533844,8.6751709,15.3957138,8.6751709,26.5965958c0,8.0108185-1.5812988,14.8191986-4.7438965,20.4251251
									c-3.1625977,5.5949554-7.3793945,9.7623291-12.6503906,12.4966736
									c-5.2600098,2.7343292-11.0471191,4.1069794-17.3723145,4.1069794c-10.5310669,0-18.7011108-3.2614288-24.5101929-9.7952728
									C553.3335571,124.0674362,550.4290161,115.2000732,550.4290161,103.9991989z M584.6685791,132.1770935
									c9.5152588,0,14.2756348-9.1803284,14.2756348-27.5409851c0-9.6031036-1.1365967-16.9111252-3.4041748-21.9185791
									c-2.2731323-5.0184326-5.9738159-7.5331345-11.1130371-7.5331345c-9.7843018,0-14.6709595,9.1913071-14.6709595,27.5629425
									c0,9.6085968,1.1969604,16.9111252,3.6018677,21.9185791
									C575.7572632,129.6733704,579.5293579,132.1770935,584.6685791,132.1770935z"/>
							</g>
						</g>
					</g>
					<g>
						<g transform="translate(305.293252, 88.325028)">
							<g>
								<path fill="#334D87" d="M580.437439,80.7409058l-8.0822144-2.2621384v-8.7191162l20.9741821-2.6574631h0.3733521
									l3.1625977,2.5256882v4.9196014l-0.1317749,3.0527878c2.9539795-2.7782516,6.7919312-5.1831512,11.5083618-7.2036972
									c4.7109985-2.0315323,9.4713745-3.0527878,14.2756348-3.0527878c5.1392212,0,9.1583862,0.955368,12.0574341,2.8551254
									c2.9100342,1.8887711,4.99646,4.8646927,6.2592773,8.9167709c1.2738647,4.0411072,1.9107666,9.520752,1.9107666,16.4279556
									v34.8764572l7.7088623,1.0102844v7.5770569h-32.6143188v-7.5770569l6.8303223-1.0102844V95.5436325
									c0-4.3925018-0.302002-7.8241425-0.9004517-10.300415c-0.5875244-2.4872513-1.6582031-4.2936707-3.206543-5.424736
									c-1.553833-1.1420517-3.7666016-1.7130737-6.6326904-1.7130737c-4.8042603,0-9.9435425,2.064476-15.4176636,6.1934204
									v45.9894867l7.5770874,1.1420593v7.5770569h-32.9877319v-7.5770569l7.3355103-1.1420593V80.7409058z"/>
							</g>
						</g>
					</g>
					<g>
						<g transform="translate(387.824695, 88.325028)">
							<g>
								<path fill="#334D87" d="M616.1963501,54.5835609l-9.3560181-1.6252251v-7.8406143h38.4124146v7.8406143
									l-10.6079102,1.6252251v31.7358208h38.4124146V54.5835609l-9.7293701-1.6252251v-7.8406143h37.9072876v7.8406143
									l-9.5975952,1.6252251v75.5729828l9.5975952,1.2738342v7.5770569H663.196106v-7.5770569l9.861145-1.2738342V95.9169998
									h-38.4124146v34.2395401l10.6079102,1.2738342v7.5770569h-38.6759644v-7.5770569l9.6195679-1.2738342V54.5835609z"/>
							</g>
						</g>
					</g>
					<g>
						<g transform="translate(462.894161, 88.325028)">
							<g>
								<path fill="#334D87" d="M669.1340942,140.3910675c-11.1295166,0-19.4093628-3.2614288-24.8395996-9.7952728
									c-5.43573-6.5283585-8.1481323-15.4396439-8.1481323-26.7283707c0-7.5660858,1.4111328-14.1328735,4.2387695-19.7003708
									c2.8222046-5.5620041,6.8084106-9.8172379,11.9476318-12.7602081
									c5.1392212-2.9539642,11.074585-4.4364319,17.8115845-4.4364319c8.4171143,0,14.9015503,2.2127228,19.4588013,6.6326752
									c4.5516968,4.4254456,6.9071655,10.7286835,7.0718994,18.9097214c0,5.5510254-0.3403931,9.6744843-1.0102539,12.3648911
									h-41.0698853c0.3348999,7.6758957,2.1412964,13.6387177,5.4247437,17.899437
									c3.2943726,4.2497482,7.9723511,6.369133,14.0339966,6.369133c3.2943726,0,6.6821289-0.5380859,10.1686401-1.6252289
									c3.4975586-1.0981216,6.2593384-2.404892,8.2799072-3.9312897l3.1625977,6.940155
									c-2.2731323,2.448822-5.9518433,4.6999664-11.0471802,6.7644501
									C679.5223389,139.3588257,674.361145,140.3910675,669.1340942,140.3910675z M678.9952393,97.3006363
									c0.1592407-2.3554764,0.2415771-4.1618958,0.2415771-5.4247437c0-11.211853-3.7501221-16.8232727-11.244812-16.8232727
									c-4.1289673,0-7.3354492,1.6471863-9.6195679,4.9415588c-2.2731323,3.2833939-3.5304565,9.0485535-3.7775269,17.3064575
									H678.9952393z"/>
							</g>
						</g>
					</g>
					<g>
						<g transform="translate(512.341143, 88.325028)">
							<g>
								<path fill="#334D87" d="M664.6798096,46.6331367l-9.3560791-1.6471901v-6.8303375l23.368103-2.7672768h0.2635498
									l3.4042358,2.3939133v92.6378479l9.2242432,1.0102844v7.5770569h-35.7549438v-7.5770569l8.8508911-1.1420593V46.6331367z"/>
							</g>
						</g>
					</g>
					<g>
						<g transform="translate(542.908332, 88.325028)">
							<g>
								<path fill="#334D87" d="M739.6268921,101.6052856c0,7.0719299-1.4605103,13.5618439-4.3705444,19.4587784
									c-2.8990479,5.9024277-7.1542969,10.6023941-12.7601929,14.0999222
									c-5.5949707,3.486557-12.2715454,5.2270813-20.0298462,5.2270813c-1.6856079,0-3.4371338-0.1482391-5.2490234-0.4392548
									c-1.8009033-0.2964935-3.2504272-0.6533813-4.3485718-1.0761566l0.3733521,10.4980774v11.4863892l11.749939,1.5154114
									v7.2037048h-37.5338745v-7.2037048l8.2139282-1.5154114V80.7409058l-8.2139282-2.2621384v-8.7191162l20.8643799-2.6574631
									h0.2415771l3.1625977,2.5256882v7.0719299c2.1083984-2.6025543,4.9689941-4.875679,8.5873413-6.8083801
									c3.6292725-1.9436798,7.5880127-2.9210129,11.8817139-2.9210129c8.0053101,0,14.5830688,2.8496399,19.72229,8.5434189
									C737.057251,81.1966248,739.6268921,89.8937836,739.6268921,101.6052856z M705.6289062,77.4684906
									c-2.5366211,0-4.9360352,0.5490646-7.2036743,1.6471863c-2.2731323,1.0871506-3.9971924,2.3005753-5.1831665,3.6457825
									v46.8899384c0.5820312,0.851059,1.7844849,1.5703278,3.6018677,2.1523285
									c1.8118896,0.5875092,3.8104858,0.8785095,5.9957886,0.8785095c5.4741211,0,9.8391724-2.3774414,13.0895996-7.1378174
									c3.2504883-4.7548828,4.8757324-12.2331161,4.8757324-22.4237213c0-8.5928268-1.3946533-15.0113678-4.1729126-19.261116
									C713.8483887,79.5988541,710.1806641,77.4684906,705.6289062,77.4684906z"/>
							</g>
						</g>
					</g>
				</g>
			</g>
		</g>
	</g>
</g>
<g id="Layer_2">
	<circle fill="#FFCD00" cx="290.8932495" cy="440" r="45.5863571"/>
	<g>
		<polygon fill="#334D87" points="290.8965454,165.5715332 290.8965454,342.9614868 245.3065796,378.5515137 
			139.9865723,271.9714966 159.3365479,206.5814819 		"/>
		<polygon fill="#334D87" points="441.8065796,271.9714966 336.4865723,378.5515137 422.456543,206.5814819 		"/>
		<polygon fill="#667AA5" points="422.456543,206.5814819 336.4865723,378.5515137 290.8965454,342.9614868 
			290.8965454,165.5715332 		"/>
		<polygon fill="#002169" points="192.6065674,252.0415039 245.3065796,378.5515137 139.9865723,271.9714966 
			159.3365479,206.5814819 290.8965454,165.5715332 		"/>
	</g>
	<g>
		<polygon fill="#334D87" points="16.4647827,439.9967041 193.8547363,439.9967041 229.4447632,485.5866699 
			122.8647461,590.9066772 57.4747314,571.5567017 		"/>
		<polygon fill="#334D87" points="122.8647461,289.0866699 229.4447632,394.4066772 57.4747314,308.4367065 		"/>
		<polygon fill="#667AA5" points="57.4747314,308.4367065 229.4447632,394.4066772 193.8547363,439.9967041 16.4647827,439.9967041 
					"/>
		<polygon fill="#002169" points="102.9347534,538.2866821 229.4447632,485.5866699 122.8647461,590.9066772 
			57.4747314,571.5567017 16.4647827,439.9967041 		"/>
	</g>
	<g>
		<polygon fill="#334D87" points="290.8899536,714.4284668 290.8899536,537.0385132 336.4799194,501.4484863 
			441.7999268,608.0285034 422.4499512,673.4185181 		"/>
		<polygon fill="#334D87" points="139.9799194,608.0285034 245.2999268,501.4484863 159.3299561,673.4185181 		"/>
		<polygon fill="#667AA5" points="159.3299561,673.4185181 245.2999268,501.4484863 290.8899536,537.0385132 
			290.8899536,714.4284668 		"/>
		<polygon fill="#002169" points="389.1799316,627.9584961 336.4799194,501.4484863 441.7999268,608.0285034 
			422.4499512,673.4185181 290.8899536,714.4284668 		"/>
	</g>
	<g>
		<polygon fill="#334D87" points="565.3217163,440.0032959 387.9317627,440.0032959 352.3417358,394.4133301 
			458.9217529,289.0933228 524.3117676,308.4432983 		"/>
		<polygon fill="#334D87" points="458.9217529,590.9133301 352.3417358,485.5933228 524.3117676,571.5632935 		"/>
		<polygon fill="#667AA5" points="524.3117676,571.5632935 352.3417358,485.5933228 387.9317627,440.0032959 
			565.3217163,440.0032959 		"/>
		<polygon fill="#002169" points="478.8517456,341.7133179 352.3417358,394.4133301 458.9217529,289.0933228 
			524.3117676,308.4432983 565.3217163,440.0032959 		"/>
	</g>
</g>
</svg>
